<svg width="1440" height="1024" viewBox="0 0 1440 1024" fill="none" xmlns="http://www.w3.org/2000/svg">
<g clip-path="url(#clip0_5_0)">
<rect width="1440" height="1024" fill="#1A1B26"/>
<line x1="-25.8558" y1="236.621" x2="280.356" y2="-20.321" stroke="#1A1B26" stroke-width="40"/>
<line x1="-32.0697" y1="771.015" x2="981.119" y2="-79.1511" stroke="#1A1B26" stroke-width="50"/>
<line x1="886.464" y1="1079.78" x2="1477.4" y2="583.923" stroke="#1A1B26" stroke-width="50"/>
<line x1="180.517" y1="1085.79" x2="1480.2" y2="-4.77238" stroke="#1A1B26" stroke-width="30"/>
<line x1="-72.3508" y1="464.914" x2="507.784" y2="-21.8766" stroke="#1A1B26" stroke-width="60"/>
<line x1="-72.2836" y1="637.818" x2="753.363" y2="-54.9815" stroke="#1A1B26" stroke-width="60"/>
<line x1="657.861" y1="1064.5" x2="1483.51" y2="371.698" stroke="#1A1B26" stroke-width="100"/>
<line x1="453.603" y1="1077.64" x2="1463.12" y2="230.556" stroke="#1A1B26" stroke-width="100"/>
<line x1="-62.6418" y1="567.102" x2="644.775" y2="-26.4906" stroke="#1A1B26" stroke-width="30"/>
<line x1="-27.2332" y1="312.558" x2="390.805" y2="-38.2183" stroke="#1A1B26" stroke-width="10"/>
<line x1="-62.688" y1="126.293" x2="149.693" y2="-51.9158" stroke="#1A1B26" stroke-width="70"/>
<line x1="-60.4374" y1="1021.03" x2="1207.59" y2="-42.9713" stroke="#1A1B26" stroke-width="90"/>
<line x1="-35.6418" y1="710.947" x2="896.831" y2="-71.4907" stroke="#1A1B26" stroke-width="30"/>
<line x1="852.169" y1="1072.01" x2="1463.55" y2="559.005" stroke="#1A1B26" stroke-width="30"/>
<line x1="54.0892" y1="1073.31" x2="1370.73" y2="-31.4769" stroke="#1A1B26" stroke-width="48"/>
<line x1="-40.8327" y1="357.509" x2="418.397" y2="-27.8303" stroke="#1A1B26" stroke-width="20"/>
<line x1="-46.4279" y1="894.289" x2="1115.47" y2="-80.6604" stroke="#1A1B26" stroke-width="20"/>
<line x1="941.757" y1="1109.76" x2="1487.39" y2="651.92" stroke="#1A1B26" stroke-width="20"/>
<line x1="1341.37" y1="1048.31" x2="1443.78" y2="962.374" stroke="#1A1B26" stroke-width="20"/>
<line x1="260.367" y1="1072.73" x2="1481.71" y2="47.8995" stroke="#1A1B26" stroke-width="101"/>
<line x1="1123.75" y1="1096.48" x2="1481.54" y2="796.255" stroke="#1A1B26" stroke-width="110"/>
<line x1="351.095" y1="565.257" x2="480.224" y2="456.905" stroke="#1A1B26" stroke-width="34" stroke-linecap="round"/>
<line x1="665.233" y1="1028.07" x2="962.341" y2="778.768" stroke="#1A1B26" stroke-width="20" stroke-linecap="round"/>
<line x1="622.356" y1="406.71" x2="760.677" y2="290.644" stroke="#6F8EFF" stroke-width="22" stroke-linecap="round"/>
<line x1="144.849" y1="585.069" x2="206.722" y2="533.151" stroke="#6F8EFF" stroke-width="30" stroke-linecap="round"/>
<line x1="55.5826" y1="480.534" x2="212.205" y2="349.112" stroke="#6F8EFF" stroke-width="19" stroke-linecap="round"/>
<line x1="1336.27" y1="1035.32" x2="1416.48" y2="968.015" stroke="#BB9AF7" stroke-width="10" stroke-linecap="round"/>
<line x1="385.616" y1="92.2409" x2="442.815" y2="44.2454" stroke="#BB9AF7" stroke-width="32" stroke-linecap="round"/>
<line x1="703.238" y1="629.869" x2="935.548" y2="434.938" stroke="#FF9E64" stroke-width="12" stroke-linecap="round"/>
<line x1="-12.2605" y1="806.331" x2="271.461" y2="568.26" stroke="#FF9E64" stroke-width="12" stroke-linecap="round"/>
<line x1="353.74" y1="1049.18" x2="512.142" y2="916.26" stroke="#BB9AF7" stroke-width="12" stroke-linecap="round"/>
<line x1="67.6023" y1="265.283" x2="140.162" y2="204.398" stroke="#FF007C" stroke-width="26" stroke-linecap="round"/>
<line x1="1018.34" y1="330.632" x2="1117.95" y2="247.048" stroke="#FF9E64" stroke-width="26" stroke-linecap="round"/>
<line x1="15.6023" y1="994.422" x2="147.916" y2="883.398" stroke="#1A1B26" stroke-width="26" stroke-linecap="round"/>
<line x1="859.644" y1="1003.14" x2="1199.68" y2="717.812" stroke="#FF9E64" stroke-width="2" stroke-linecap="round"/>
<line x1="-23.9118" y1="434.87" x2="319.269" y2="146.907" stroke="#1A1B26" stroke-linecap="round"/>
<line x1="308.062" y1="437.457" x2="601.851" y2="190.938" stroke="#1A1B26" stroke-linecap="round"/>
<line x1="-45.0882" y1="633.791" x2="198.445" y2="429.442" stroke="#9ECE6A" stroke-linecap="round"/>
<line x1="53.0616" y1="181.618" x2="212.375" y2="47.9384" stroke="#9ECE6A" stroke-linecap="round"/>
<line x1="1255.31" y1="292.29" x2="1500.33" y2="86.6919" stroke="#E0AF68" stroke-width="5" stroke-linecap="round"/>
<line x1="525.465" y1="599.817" x2="605.649" y2="532.535" stroke="#FF007C" stroke-width="40" stroke-linecap="round"/>
<line x1="411.748" y1="897.93" x2="572.539" y2="763.01" stroke="#FF007C" stroke-width="26" stroke-linecap="round"/>
<line x1="996.478" y1="695.335" x2="1331.67" y2="414.079" stroke="#FF9E64" stroke-width="6" stroke-linecap="round"/>
<line x1="1299.14" y1="953.198" x2="1382.97" y2="882.857" stroke="#E0AF68" stroke-width="51" stroke-linecap="round"/>
<line x1="1281.39" y1="658.272" x2="1347.72" y2="602.611" stroke="#FF9E64" stroke-width="55" stroke-linecap="round"/>
<line x1="315.39" y1="859.374" x2="349.669" y2="830.611" stroke="#1A1B26" stroke-width="55" stroke-linecap="round"/>
<line x1="567.157" y1="138.564" x2="695.534" y2="30.8431" stroke="#E0AF68" stroke-width="35" stroke-linecap="round"/>
<line x1="712.65" y1="734.972" x2="800.39" y2="661.35" stroke="#FF9E64" stroke-width="43" stroke-linecap="round"/>
<line x1="323.081" y1="337.735" x2="376.492" y2="292.919" stroke="#7DCFFF" stroke-width="50" stroke-linecap="round"/>
<line x1="709.87" y1="242.072" x2="806.561" y2="160.939" stroke="#7DCFFF" stroke-width="32" stroke-linecap="round"/>
<line x1="1004.22" y1="984.173" x2="1088.11" y2="913.781" stroke="#BB9AF7" stroke-width="36" stroke-linecap="round"/>
<line x1="959.157" y1="563.709" x2="1103.2" y2="442.843" stroke="#BB9AF7" stroke-width="35" stroke-linecap="round"/>
<line x1="1226.29" y1="196.969" x2="1385.11" y2="63.7057" stroke="#7DCFFF" stroke-width="21" stroke-linecap="round"/>
<line x1="338.123" y1="220.744" x2="691.917" y2="-76.1234" stroke="#E0AF68" stroke-width="2" stroke-linecap="round"/>
<line x1="1121.83" y1="668.246" x2="1488.92" y2="360.221" stroke="#BB9AF7" stroke-width="2" stroke-linecap="round"/>
<line x1="183.417" y1="117.058" x2="345.711" y2="-19.1224" stroke="#FF007C" stroke-width="4" stroke-linecap="round"/>
<line x1="66.2465" y1="891.738" x2="460.699" y2="560.753" stroke="#9ECE6A" stroke-width="4" stroke-linecap="round"/>
<line x1="1221.37" y1="405.403" x2="1451.11" y2="212.63" stroke="#1A1B26" stroke-width="6" stroke-linecap="round"/>
<line x1="1089.12" y1="1032" x2="1304.97" y2="850.877" stroke="#9ECE6A" stroke-width="2" stroke-linecap="round"/>
<line x1="910.752" y1="530.483" x2="1268.03" y2="230.687" stroke="#9ECE6A" stroke-width="5" stroke-linecap="round"/>
<line x1="640.362" y1="921.199" x2="837.71" y2="755.604" stroke="#9ECE6A" stroke-width="3" stroke-linecap="round"/>
<line x1="987.04" y1="263.451" x2="1261.32" y2="33.3055" stroke="#9ECE6A" stroke-linecap="round"/>
<line x1="603.123" y1="627.149" x2="962.166" y2="325.877" stroke="#9ECE6A" stroke-width="2" stroke-linecap="round"/>
<line x1="861.438" y1="274.162" x2="1135.21" y2="44.4435" stroke="#E0AF68" stroke-width="13" stroke-linecap="round"/>
<line x1="1206.61" y1="827.135" x2="1460.25" y2="614.3" stroke="#FF9E64" stroke-width="8" stroke-linecap="round"/>
<line x1="513.493" y1="315.342" x2="767.14" y2="102.507" stroke="#FF9E64" stroke-width="8" stroke-linecap="round"/>
<line x1="1149.49" y1="936.243" x2="1356.54" y2="762.507" stroke="#1A1B26" stroke-width="8" stroke-linecap="round"/>
<line x1="-9.61665" y1="129.026" x2="83.1897" y2="51.1526" stroke="#E0AF68" stroke-width="24" stroke-linecap="round"/>
</g>
<defs>
<clipPath id="clip0_5_0">
<rect width="1440" height="1024" fill="white"/>
</clipPath>
</defs>
</svg>
